<?xml version="1.0" standalone="no"?><!DOCTYPE svg PUBLIC "-//W3C//DTD SVG 1.1//EN" "http://www.w3.org/Graphics/SVG/1.1/DTD/svg11.dtd"><svg t="1752499853382" class="icon" viewBox="0 0 1024 1024" version="1.1" xmlns="http://www.w3.org/2000/svg" p-id="10674" xmlns:xlink="http://www.w3.org/1999/xlink" width="80" height="80"><path d="M837.802667 639.061333l-111.616 0.448c-4.266667 0-14.293333 5.610667-16.597334 9.237334l-53.482666 85.312c-62.250667 99.114667-160.746667 84.053333-189.504-29.354667l-17.493334-69.461333L147.477333 936.832a42.666667 42.666667 0 0 1-60.330666-60.330667l301.653333-301.653333-69.653333-17.578667c-113.237333-28.437333-128.32-127.488-29.333334-189.504l85.034667-53.312c3.882667-2.453333 9.472-12.48 9.472-16.725333l0.469333-111.594667c0.426667-100.224 83.413333-143.296 165.098667-85.141333l83.349333 59.413333c2.816 1.984 13.44 3.52 17.066667 2.282667l119.061333-40.128c98.090667-32.832 164.949333 34.026667 131.712 131.925333l-40.170666 119.210667c-1.152 3.306667 0.405333 13.866667 2.517333 16.810667l59.52 83.477333c58.218667 81.706667 15.189333 164.992-85.162667 165.077333zM277.333333 192l-55.168 30.165333L192 277.333333l-30.165333-55.168L106.666667 192l55.168-30.165333L192 106.666667l30.165333 55.168L277.333333 192z m576.149334 331.52l-59.52-83.477333c-18.112-25.386667-23.893333-64.768-13.802667-93.930667l40.106667-118.954667c10.538667-31.061333 7.466667-34.133333-23.722667-23.701333l-118.656 39.978667c-29.354667 10.154667-68.693333 4.48-94.058667-13.44l-83.456-59.52c-25.088-17.856-30.08-15.253333-30.229333 16l-0.469333 111.616c-0.128 33.450667-20.736 70.4-49.237334 88.533333l-85.312 53.44c-35.52 22.272-35.2 24.384 4.906667 34.453333l107.306667 27.093334c34.56 9.002667 66.304 40.746667 74.986666 75.221333l27.008 106.944c10.24 40.384 12.053333 40.661333 34.496 4.906667l53.632-85.504c17.984-28.266667 54.933333-48.853333 88.362667-49.002667l111.786667-0.448c31.232-0.021333 33.813333-5.034667 15.872-30.208zM917.333333 832l-55.168 30.165333L832 917.333333l-30.165333-55.168L746.666667 832l55.168-30.165333L832 746.666667l30.165333 55.168L917.333333 832z" fill="#000000" fill-opacity=".85" p-id="10675"></path></svg>